<?xml version="1.0" encoding="UTF-8"?><svg id="Layer_2" xmlns="http://www.w3.org/2000/svg" viewBox="0 0 484.88 601.85"><g id="Layer_1-2"><path d="m458.82,0c-57.53-.08-300.9,15.86-368.48,17.91-11.84.81-31.12,1.97-42.99,2.56C19.61,21.52,2.77,22.11,0,50.44c3.08,113.12,10.56,269.17,15.36,397.69,4.51,105.81,4.69,113.4,3.89,123.51-1.48,25.62,11.36,31.51,35.77,29.99,50.9-.93,302.46-3.54,368.54-6.64,19-1.26,23.63-2.39,29.34-6.84,6.15-4.83,9.04-12.72,9.18-24.55,2.26-72.21,7.37-167.93,7.4-178.15,3.76-76.96,11.43-244.53,14.64-329.35C486.3,27.9,485.42,6.36,458.82,0ZM90.16,69.9c2.28-3.76,6.89-5.42,17.28-6,35.12-3.64,135.68-7.11,174.23-9.14,27.34-1.47,80.6-3.53,103.5-4.89,18.08-1.37,22.9-.31,25.33,5.74,8.73,3.68-32.4,47.28-40.68,58.3-36.58,44.02-91.81,112.87-132.63,152.17-16.04,15.45-8.89,15.12-15.85,7.79-23.75-34.79-49.91-77.17-79.6-118.37m302.58-59.88c2.67,2.95,3.1,9.26,1.61,28.24-5.69,76.66-9.62,131.15-11.25,158.67-4.36,52.16-10.37,184.87-18.95,245.55-9.59,15.03-17.71,1.91-37.68-25.78-8.19-11.37-19.82-27.12-25.85-34.97-43.99-56.63-105.39-145.68-108.26-157.09-1.73-6.23.5-10.74,9.4-19.17,15.3-14.54,25.52-25.79,121.81-133.94,33.14-33.2,55.27-73.68,69.16-61.52Zm-377.68,14.24c60.62,84.55,123.45,195.63,182.18,286.17,23.9,36.3,36.87,54.86,57.53,82.28,22.82,34.14,54.74,63.8,43.88,75.89-4.12,3.85-5.41,3.93-47,3.7-76.49-2.32-165.37,3.48-231.44-2.42-7.14-4.11-7.1-3.04-9.62-89.8-1.37-48.43-2.47-77.88-4.01-120.16-3.24-84.42-4-106.72-5.77-162.12-2.17-73.11-5.15-85.1,14.24-73.55Z" fill="#cc3232" stroke-width="0"/></g></svg>